<?xml version="1.0" encoding="UTF-8" standalone="no"?>
<!-- Created with Inkscape (http://www.inkscape.org/) -->

<svg
   width="15.3496mm"
   height="15.350122mm"
   viewBox="0 0 15.3496 15.350122"
   version="1.1"
   id="svg1"
   inkscape:version="1.3.2 (091e20e, 2023-11-25, custom)"
   sodipodi:docname="duck new contour.svg"
   xmlns:inkscape="http://www.inkscape.org/namespaces/inkscape"
   xmlns:sodipodi="http://sodipodi.sourceforge.net/DTD/sodipodi-0.dtd"
   xmlns="http://www.w3.org/2000/svg"
   xmlns:svg="http://www.w3.org/2000/svg">
  <sodipodi:namedview
     id="namedview1"
     pagecolor="#ffffff"
     bordercolor="#000000"
     borderopacity="0.25"
     inkscape:showpageshadow="2"
     inkscape:pageopacity="0.0"
     inkscape:pagecheckerboard="0"
     inkscape:deskcolor="#d1d1d1"
     inkscape:document-units="mm"
     inkscape:zoom="20.52054"
     inkscape:cx="24.341465"
     inkscape:cy="119.95298"
     inkscape:window-width="1366"
     inkscape:window-height="705"
     inkscape:window-x="-8"
     inkscape:window-y="-8"
     inkscape:window-maximized="1"
     inkscape:current-layer="layer1" />
  <defs
     id="defs1" />
  <g
     inkscape:label="Camada 1"
     inkscape:groupmode="layer"
     id="layer1"
     transform="translate(-51.329167,-55.827083)">
    <rect
       width="14.999992"
       height="14.999992"
       rx="0"
       fill="#151515"
       id="rect3"
       x="51.83556"
       y="72.488266"
       style="fill:none;stroke:#151515;stroke-width:0.35;stroke-dasharray:none;stroke-opacity:1" />
    <path
       id="path1"
       style="fill:none;stroke:#151515;stroke-width:0.35;stroke-dasharray:none;stroke-opacity:1"
       d="m 60.597853,87.48826 v 0 l 3.417879,-7.329786 c 0.0043,-0.007 0.0083,-0.01412 0.0124,-0.02119 0.384075,-0.823636 -0.403922,-2.003897 -1.760617,-2.636532 -0.54076,-0.252157 -1.116973,-0.388924 -1.639177,-0.389123 v 3e-6 0 c -0.639183,2.86e-4 -1.148638,0.204832 -1.412317,0.567924 l -2.78691,3.259749 c -0.06673,0.07803 -0.09256,0.183081 -0.06976,0.283187 l 0.35295,1.551327 c 0.02894,0.159163 -0.06046,0.348816 -0.06046,0.348816 l -2.036052,4.365625 v 0" />
    <path
       id="path2"
       style="fill:none;stroke:#151515;stroke-width:0.35;stroke-dasharray:none;stroke-opacity:1"
       d="m 54.615789,87.48826 h 5.982064" />
    <path
       d="m 61.413605,59.360452 c 0.01134,-0.04297 0.0631,-0.06014 0.09777,-0.03242 l 0.401765,0.320848 c 0.01807,0.01442 0.0265,0.03772 0.02186,0.06034 l -0.1183,0.577267 c -0.0097,0.04773 -0.06854,0.06563 -0.103295,0.03142 l -0.412477,-0.406318 c -0.0157,-0.01545 -0.02193,-0.03808 -0.01633,-0.05936 z"
       fill="#f0f0f0"
       id="path16"
       style="fill:#151515;fill-opacity:1;stroke-width:0.00877598" />
    <path
       d="m 63.438401,59.385305 c 0.0251,-0.09183 -0.0526,-0.179133 -0.14673,-0.164884 l -0.82969,0.125647 c -0.0489,0.0074 -0.0896,0.04162 -0.10522,0.08856 l -0.304,0.912721 c -0.0329,0.09906 0.057,0.195257 0.15805,0.169008 l 0.91472,-0.237671 c 0.0456,-0.01187 0.0815,-0.0472 0.0939,-0.09267 z"
       fill="#ffab07"
       id="path18"
       style="fill:#151515;fill-opacity:1;stroke:none;stroke-width:0.35;stroke-dasharray:none;stroke-opacity:1" />
    <path
       d="m 62.271721,63.800116 c 0,1.053238 -0.787468,0 -1.758881,0 -0.971342,0 -1.758796,1.053238 -1.758796,0 0,-1.053196 0.787454,-1.906986 1.758796,-1.906986 0.971413,0 1.758881,0.85379 1.758881,1.906986 z"
       stroke="#151515"
       stroke-width="0.438799"
       id="path20"
       style="fill:none;fill-opacity:1;stroke-width:0.35;stroke-dasharray:none" />
    <path
       id="path22"
       d="m 56.071989,58.344223 c -0.0603,0.0018 -0.08462,0.104694 -0.07533,0.144289 l 1.15219,3.873722 c 0.03461,0.140092 0.101407,0.179825 0.189762,0.11419 0.0113,-0.0084 0.02069,-0.018 0.03001,-0.02856 0.14396,-0.162514 1.388221,-1.567047 1.433686,-1.61665 0.04388,-0.05266 0.04388,-0.153579 -0.01314,-0.201846 l -2.669636,-2.26813 c -0.01779,-0.01244 -0.03362,-0.01743 -0.04753,-0.01704 z m -1.530961,3.976992 c -0.06704,-0.0032 -0.109973,0.08915 -0.05649,0.146742 0.05662,0.06098 1.417374,1.532018 1.437302,1.553573 7.09e-4,7.08e-4 3.55e-4,7.08e-4 0.0011,0.0014 0.043,0.04632 0.102431,0.04266 0.142695,-0.0041 0.0014,-0.0018 0.0025,-0.0032 0.0041,-0.0049 0.04698,-0.055 0.965394,-1.130412 0.997531,-1.181192 0.0293,-0.04631 0.05821,-0.171871 -0.04328,-0.246635 -0.02735,-0.02012 -0.06072,-0.02693 -0.09453,-0.03008 -0.340598,-0.03192 -2.306649,-0.216713 -2.374778,-0.232737 -0.0047,-0.0011 -0.0092,-0.0018 -0.01371,-0.0018 z"
       style="fill:#151515;fill-opacity:1;stroke:none;stroke-width:0.35;stroke-dasharray:none;stroke-opacity:1" />
    <path
       d="m 60.297389,63.029629 c -0.06145,0.131779 -0.218101,0.188798 -0.349881,0.127347 -0.13178,-0.06145 -0.188798,-0.218101 -0.127348,-0.349881 0.06145,-0.131786 0.218101,-0.188798 0.349881,-0.127347 0.13178,0.06145 0.188798,0.218101 0.127348,0.349881 z"
       fill="#151515"
       id="path23"
       style="stroke:none;stroke-width:0.00877598" />
    <path
       id="rect24"
       style="fill:none;stroke:#151515;stroke-width:0.35;stroke-linejoin:round;stroke-dasharray:none;stroke-opacity:1"
       d="m 51.504167,56.002083 v 15.000118 h 2.780192 l 2.035535,-4.365625 c 0,0 0.08992,-0.190169 0.06098,-0.349333 l -0.353467,-1.551326 c -0.0228,-0.100107 0.003,-0.205152 0.06976,-0.283187 l 1.393713,-1.629616 1.393714,-1.629617 c 0.263679,-0.363091 0.772616,-0.568154 1.4118,-0.56844 0.522204,1.98e-4 1.098416,0.136965 1.639176,0.389123 1.356697,0.632636 2.14521,1.813412 1.761133,2.637049 -0.0041,0.0071 -0.0081,0.01422 -0.0124,0.02119 l -3.418398,7.329786 h 6.237862 V 56.002083 Z"
       sodipodi:nodetypes="ccccccccccccccccc" />
    <path
       id="rect25"
       style="fill:none;stroke:#151515;stroke-width:0.35;stroke-dasharray:none;stroke-opacity:1"
       d="m 77.544722,61.008741 c -0.639184,2.86e-4 -1.148638,0.204832 -1.412317,0.567924 l -2.78691,3.259749 c -0.06673,0.07803 -0.09256,0.183081 -0.06976,0.283187 l 0.35295,1.551327 c 0.02894,0.159163 -0.06046,0.348816 -0.06046,0.348816 l -2.036052,4.365625 h 5.982064 l 3.417879,-7.329786 c 0.0043,-0.007 0.0083,-0.01412 0.0124,-0.02119 0.384075,-0.823637 -0.403921,-2.003896 -1.760617,-2.636532 -0.540761,-0.252157 -1.116972,-0.388924 -1.639177,-0.389123 z" />
    <rect
       width="14.999992"
       height="14.999992"
       rx="0"
       fill="#151515"
       id="rect30"
       x="68.751945"
       y="56.385376"
       style="fill:none;stroke:#151515;stroke-width:0.35;stroke-dasharray:none;stroke-opacity:1" />
  </g>
</svg>
