<?xml version="1.0" encoding="UTF-8" standalone="no"?>
<svg
   width="1709"
   height="1709"
   viewBox="0 0 1709 1709"
   fill="none"
   version="1.1"
   id="svg10"
   sodipodi:docname="LOGO NEW.svg"
   inkscape:version="1.3.2 (091e20e, 2023-11-25, custom)"
   xmlns:inkscape="http://www.inkscape.org/namespaces/inkscape"
   xmlns:sodipodi="http://sodipodi.sourceforge.net/DTD/sodipodi-0.dtd"
   xmlns="http://www.w3.org/2000/svg"
   xmlns:svg="http://www.w3.org/2000/svg">
  <defs
     id="defs10" />
  <sodipodi:namedview
     id="namedview10"
     pagecolor="#ffffff"
     bordercolor="#000000"
     borderopacity="0.25"
     inkscape:showpageshadow="2"
     inkscape:pageopacity="0.0"
     inkscape:pagecheckerboard="0"
     inkscape:deskcolor="#d1d1d1"
     inkscape:zoom="0.088388348"
     inkscape:cx="1510.3801"
     inkscape:cy="1408.5567"
     inkscape:window-width="1366"
     inkscape:window-height="705"
     inkscape:window-x="-8"
     inkscape:window-y="-8"
     inkscape:window-maximized="1"
     inkscape:current-layer="svg10" />
  <rect
     width="1707.21"
     height="1707.21"
     rx="0"
     fill="#151515"
     id="rect1"
     x="0.79003906"
     y="0.79003906"
     style="stroke-width:0.99908" />
  <path
     id="rect10"
     d="M 1001.5069,526.97341 A 308.48761,187.2806 25 0 0 840.80052,591.65349 L 523.58424,962.61148 c -7.59511,8.88158 -10.54265,20.83034 -7.94769,32.22397 l 40.20879,176.56855 -6.92549,39.7132 L 317.21859,1708 H 998.04021 L 1387.0518,873.7644 a 308.48761,187.2806 25 0 0 1.4476,-2.39368 308.48761,187.2806 25 0 0 -200.4371,-300.10741 308.48761,187.2806 25 0 0 -186.5554,-44.2899 z M 559.93235,1182.5823 c 0.41122,0.7583 0.77939,1.555 1.23486,2.2688 l -1.55878,3.3418 c 0.16521,-1.795 0.27888,-3.6596 0.32392,-5.6106 z"
     style="fill:#f0f0f0;fill-opacity:1;stroke-width:0.99883" />
  <mask
     id="mask0_109_2"
     style="mask-type:alpha"
     maskUnits="userSpaceOnUse"
     x="0"
     y="0"
     width="1709"
     height="1709">
    <rect
       width="1708.79"
       height="1708.79"
       rx="450"
       fill="#151515"
       id="rect2" />
  </mask>
  <path
     d="m 1108.752,402.93688 c 1.2885,-4.89127 7.1816,-6.84498 11.127,-3.68967 l 45.7264,36.51722 c 2.0576,1.64008 3.0165,4.29297 2.4871,6.86695 l -13.4642,65.70103 c -1.1087,5.43264 -7.8009,7.46925 -11.7563,3.57781 l -46.945,-46.24482 c -1.7879,-1.75694 -2.497,-4.33393 -1.8578,-6.75609 z"
     fill="#f0f0f0"
     id="path3"
     style="stroke-width:0.99883" />
  <path
     d="m 1339.202,405.76557 c 2.8567,-10.45176 -5.9829,-20.38811 -16.7004,-18.76602 l -94.4294,14.30025 c -5.5634,0.84301 -10.198,4.73645 -11.9759,10.07919 l -34.5995,103.88031 c -3.7456,11.27379 6.4824,22.22296 17.9889,19.23546 l 104.1081,-27.05031 c 5.1939,-1.34942 9.2691,-5.3727 10.6874,-10.54764 z"
     fill="#ffab07"
     id="path4"
     style="stroke-width:0.99883" />
  <path
     d="m 981.71085,820.54066 c -6.99381,14.99843 -24.82292,21.48783 -39.82135,14.49402 -14.99843,-6.99381 -21.48783,-24.82292 -14.49402,-39.82135 6.99381,-14.99943 24.82292,-21.48783 39.82135,-14.49402 14.99843,6.99381 21.48783,24.82292 14.49402,39.82135 z"
     fill="#151515"
     id="path5"
     style="stroke-width:0.99883" />
  <path
     d="m 1206.4176,908.23293 c 0,119.87357 -89.625,0 -200.1855,0 -110.55247,0 -200.17547,119.87357 -200.17547,0 0,-119.86857 89.623,-217.04174 200.17547,-217.04174 110.5605,0 200.1855,97.17317 200.1855,217.04174 z"
     stroke="#151515"
     stroke-width="49.9415"
     id="path7" />
  <circle
     cx="966.36884"
     cy="792.57245"
     r="3.4959044"
     fill="#d9d9d9"
     id="circle7"
     style="stroke-width:0.99883" />
  <path
     id="path8"
     d="m 500.80096,287.27571 c -6.86272,0.19186 -9.63058,11.91564 -8.57395,16.42216 l 131.13545,440.8839 c 3.93937,15.94431 11.54152,20.46674 21.59773,12.99649 1.2845,-0.95388 2.35418,-2.04955 3.41593,-3.24814 16.38479,-18.49632 157.99915,-178.35196 163.17407,-183.99734 4.99415,-5.99297 4.99414,-17.47953 -1.49824,-22.97309 L 506.21063,289.21484 c -2.023,-1.41452 -3.82597,-1.98341 -5.40967,-1.93913 z m -174.2451,452.63771 c -7.63021,-0.35847 -12.51657,10.14632 -6.42996,16.70113 6.44444,6.94086 161.31736,174.36512 163.5857,176.81825 0.0709,0.0759 0.0598,0.0684 0.1307,0.14436 4.89427,5.27182 11.65812,4.85556 16.24075,-0.4682 0.17279,-0.20077 0.2964,-0.35228 0.4682,-0.55404 5.34673,-6.25966 109.8753,-128.65703 113.533,-134.43626 3.3361,-5.27082 6.62559,-19.56161 -4.92586,-28.07063 -3.11235,-2.29131 -6.91039,-3.0651 -10.75888,-3.42567 -38.76455,-3.63475 -262.52907,-24.66464 -270.28297,-26.4885 -0.53063,-0.12486 -1.05199,-0.19655 -1.56068,-0.22044 z"
     style="fill:#ffab07;fill-opacity:1;stroke-width:0.99883" />
</svg>
