<?xml version="1.0" encoding="UTF-8" standalone="no"?>
<!-- Created with Inkscape (http://www.inkscape.org/) -->

<svg
   width="15.009mm"
   height="15.009mm"
   viewBox="0 0 15.009 15.009"
   version="1.1"
   id="svg1"
   inkscape:version="1.3.2 (091e20e, 2023-11-25, custom)"
   sodipodi:docname="QUACK.svg"
   xmlns:inkscape="http://www.inkscape.org/namespaces/inkscape"
   xmlns:sodipodi="http://sodipodi.sourceforge.net/DTD/sodipodi-0.dtd"
   xmlns="http://www.w3.org/2000/svg"
   xmlns:svg="http://www.w3.org/2000/svg">
  <sodipodi:namedview
     id="namedview1"
     pagecolor="#ffffff"
     bordercolor="#000000"
     borderopacity="0.25"
     inkscape:showpageshadow="2"
     inkscape:pageopacity="0.0"
     inkscape:pagecheckerboard="0"
     inkscape:deskcolor="#d1d1d1"
     inkscape:document-units="mm"
     inkscape:zoom="10.26027"
     inkscape:cx="0.048731661"
     inkscape:cy="6.5787742"
     inkscape:window-width="1366"
     inkscape:window-height="705"
     inkscape:window-x="-8"
     inkscape:window-y="-8"
     inkscape:window-maximized="1"
     inkscape:current-layer="layer1" />
  <defs
     id="defs1" />
  <g
     inkscape:label="Camada 1"
     inkscape:groupmode="layer"
     id="layer1"
     transform="translate(-137.84792,-150.54792)">
    <path
       id="rect2"
       style="fill:#151515;stroke:#151515;stroke-width:0.009;stroke-dasharray:none;stroke-opacity:1"
       d="m 137.85242,150.55242 h 15 v 15 h -15 z" />
    <path
       id="path1222"
       style="display:inline;fill:#f0f0f0;fill-opacity:1;stroke-width:0.00877814"
       d="m 145.80362,155.17322 a 2.7111204,1.6459017 25.000001 0 0 -1.51309,0.73483 2.7111204,1.6459017 25.000001 0 0 -0.0191,0.0553 l -4.47105,9.58908 h 5.9831 l 3.42873,-7.35201 -0.007,-0.003 a 2.7111204,1.6459017 25.000001 0 0 -1.76216,-2.63498 2.7111204,1.6459017 25.000001 0 0 -1.63969,-0.38912 z" />
    <path
       d="m 140.67429,157.20569 c -0.0817,-0.18111 0.0169,-0.39249 0.20817,-0.44625 l 2.28124,-0.64112 c 0.266,-0.0748 0.49793,0.19567 0.3835,0.44718 l -1.29057,2.83678 c -0.11563,0.25412 -0.47684,0.2536 -0.59169,-9.6e-4 z"
       fill="#ffab07"
       id="path4"
       style="display:inline;stroke-width:0.00877814" />
    <path
       d="m 146.76267,154.08481 c 0.0113,-0.043 0.0631,-0.0602 0.0978,-0.0324 l 0.40186,0.32093 c 0.0181,0.0144 0.0265,0.0377 0.0219,0.0603 l -0.11833,0.57741 c -0.01,0.0478 -0.0686,0.0657 -0.10332,0.0315 l -0.41257,-0.40642 c -0.0157,-0.0154 -0.0219,-0.0381 -0.0163,-0.0594 z"
       fill="#f0f0f0"
       id="path15"
       style="display:inline;stroke-width:0.00877814" />
    <path
       d="m 148.78797,154.10967 c 0.0251,-0.0918 -0.0526,-0.17918 -0.14678,-0.16492 l -0.82988,0.12567 c -0.049,0.007 -0.0896,0.0416 -0.10525,0.0886 l -0.30408,0.91295 c -0.0329,0.0991 0.057,0.1953 0.1581,0.16905 l 0.91494,-0.23773 c 0.0457,-0.0119 0.0815,-0.0472 0.0938,-0.0927 z"
       fill="#ffab07"
       id="path17"
       style="display:inline;stroke-width:0.00877814" />
    <path
       d="m 147.621,158.52557 c 0,1.0535 -0.78766,0 -1.75929,0 -0.97161,0 -1.75925,1.0535 -1.75925,0 0,-1.05346 0.78764,-1.90746 1.75925,-1.90746 0.97163,0 1.75929,0.854 1.75929,1.90746 z"
       stroke="#151515"
       stroke-width="0.438908"
       id="path19"
       style="display:inline;fill:#f0f0f0;fill-opacity:1" />
    <path
       d="m 145.64618,157.75489 c -0.0615,0.13181 -0.21815,0.18884 -0.34997,0.12738 -0.13182,-0.0615 -0.18884,-0.21815 -0.12738,-0.34997 0.0615,-0.13182 0.21816,-0.18884 0.34997,-0.12738 0.13181,0.0615 0.18885,0.21816 0.12738,0.34997 z"
       fill="#151515"
       id="path21"
       style="display:inline;stroke-width:0.00877814" />
    <circle
       cx="145.51135"
       cy="157.50911"
       r="0.030723497"
       fill="#d9d9d9"
       id="circle23"
       style="display:inline;stroke-width:0.00877814" />
  </g>
</svg>
