<?xml version="1.0" encoding="UTF-8" standalone="no"?>
<!-- Created with Inkscape (http://www.inkscape.org/) -->

<svg
   width="15mm"
   height="15mm"
   viewBox="0 0 15 15"
   version="1.1"
   id="svg5"
   sodipodi:docname="LOGO.svg"
   inkscape:version="1.3.2 (091e20e, 2023-11-25, custom)"
   xmlns:inkscape="http://www.inkscape.org/namespaces/inkscape"
   xmlns:sodipodi="http://sodipodi.sourceforge.net/DTD/sodipodi-0.dtd"
   xmlns="http://www.w3.org/2000/svg"
   xmlns:svg="http://www.w3.org/2000/svg">
  <sodipodi:namedview
     id="namedview7"
     pagecolor="#ffffff"
     bordercolor="#000000"
     borderopacity="0.25"
     inkscape:showpageshadow="2"
     inkscape:pageopacity="0.0"
     inkscape:pagecheckerboard="0"
     inkscape:deskcolor="#d1d1d1"
     inkscape:document-units="mm"
     showgrid="false"
     inkscape:zoom="2"
     inkscape:cx="27.75"
     inkscape:cy="41.75"
     inkscape:window-width="1366"
     inkscape:window-height="705"
     inkscape:window-x="-8"
     inkscape:window-y="-8"
     inkscape:window-maximized="1"
     inkscape:current-layer="layer1" />
  <defs
     id="defs2" />
  <g
     inkscape:label="F.SilkS"
     inkscape:groupmode="layer"
     id="g143"
     transform="translate(-110.83579,0.45834177)">
    <g
       id="g8548"
       transform="translate(93.530147,-20.125239)"
       style="stroke-width:0.35;stroke-dasharray:none">
      <path
         id="path7054"
         style="fill:none;fill-opacity:1;stroke:#151515;stroke-width:0.35;stroke-linecap:round;stroke-linejoin:round;stroke-dasharray:none;stroke-opacity:1"
         d="M 17.305584,-0.44143565 V 14.558683 h 1.947685 l 4.44779,-9.5374038 c 0.01212,-0.03636 0.02625,-0.07186 0.04237,-0.106453 0.02951,-0.06303 0.06559,-0.122926 0.108004,-0.179317 0.04222,-0.0566 0.09072,-0.109593 0.145211,-0.158647 0.05455,-0.0489 0.114963,-0.09378 0.180867,-0.134359 0.06592,-0.04063 0.137199,-0.07688 0.213424,-0.10852 0.07617,-0.03158 0.157124,-0.05851 0.242362,-0.08061 0.08528,-0.02213 0.174692,-0.03939 0.267684,-0.05168 0.09292,-0.01224 0.189235,-0.01949 0.288355,-0.0217 h 5.16e-4 c 0.08899,-0.002 0.180084,7.8e-5 0.272852,0.0062 0.09269,0.0061 0.186892,0.01632 0.282153,0.03049 0.09536,0.01414 0.191639,0.03226 0.288355,0.05426 0.09685,0.02202 0.193987,0.0479 0.290938,0.07751 0.09679,0.02963 0.19324,0.06293 0.288871,0.09974 0.09569,0.03674 0.190407,0.07694 0.283704,0.120406 0.09877,0.04613 0.195748,0.09583 0.290421,0.148828 0.09481,0.05304 0.187135,0.1093 0.276469,0.168465 0.08944,0.05915 0.175721,0.121099 0.258383,0.185519 0.08245,0.06427 0.161138,0.130884 0.235644,0.199471 0.07457,0.06873 0.144809,0.139307 0.210323,0.211356 0.06558,0.072 0.126321,0.145342 0.181901,0.219625 0.05551,0.07444 0.105727,0.149681 0.150379,0.225309 0.0448,0.0755 0.08397,0.151256 0.117305,0.22686 0.03316,0.07554 0.06042,0.150778 0.08165,0.225309 0.02129,0.07471 0.03648,0.148567 0.04548,0.221175 0.0091,0.07247 0.01204,0.143568 0.0088,0.212907 -0.0035,0.06937 -0.01312,0.136847 -0.02894,0.202055 -0.01564,0.06519 -0.03738,0.128003 -0.06511,0.188102 l 0.0057,0.0031 -3.428214,7.3520068 h 7.068786 V -0.44143565 h -2.354223 z"
         sodipodi:nodetypes="cccccccccccccccccccccccccccccccccccccc" />
      <path
         d="m 20.00573,6.2118432 c -0.0817,-0.1811194 0.0169,-0.392497 0.20817,-0.4462544 l 2.28124,-0.6411203 c 0.266,-0.074764 0.49793,0.1956648 0.3835,0.447176 l -1.29057,2.8367799 c -0.11563,0.254127 -0.47684,0.2536 -0.59169,-9.6e-4 z"
         fill="#ffab07"
         id="path4-3"
         style="display:inline;fill:none;stroke:#151515;stroke-width:0.35;stroke-dasharray:none;stroke-opacity:1" />
      <path
         d="m 26.09411,3.0909592 c 0.0113,-0.042987 0.0631,-0.060157 0.0978,-0.032426 l 0.40186,0.3209289 c 0.0181,0.014414 0.0265,0.037729 0.0219,0.06035 l -0.11833,0.5774086 c -0.01,0.047744 -0.0686,0.065643 -0.10332,0.031443 L 25.98145,3.6422445 c -0.0157,-0.015441 -0.0219,-0.038088 -0.0163,-0.059375 z"
         fill="#f0f0f0"
         id="path15-7"
         style="display:inline;fill:none;stroke:#151515;stroke-width:0.35;stroke-dasharray:none;stroke-opacity:1" />
      <path
         d="m 28.11941,3.1158189 c 0.0251,-0.091854 -0.0526,-0.1791794 -0.14678,-0.1649236 l -0.82988,0.1256766 c -0.049,0.00741 -0.0896,0.041626 -0.10525,0.08858 l -0.30408,0.9129443 c -0.0329,0.099079 0.057,0.1953049 0.1581,0.1690494 L 27.80646,4.009416 c 0.0457,-0.01186 0.0815,-0.047218 0.0938,-0.092697 z"
         fill="#ffab07"
         id="path17-8"
         style="display:inline;fill:none;stroke:#151515;stroke-width:0.35;stroke-dasharray:none;stroke-opacity:1" />
      <path
         d="m 26.95244,7.5317164 c 0,1.053499 -0.78766,0 -1.75929,0 -0.97161,0 -1.75925,1.053499 -1.75925,0 0,-1.053457 0.78764,-1.9074557 1.75925,-1.9074557 0.97163,0 1.75929,0.8539987 1.75929,1.9074557 z"
         stroke="#151515"
         stroke-width="0.438908"
         id="path19-8"
         style="display:inline;fill:none;fill-opacity:1;stroke-width:0.35;stroke-dasharray:none" />
      <path
         d="m 24.97762,6.7610394 c -0.0615,0.131812 -0.21815,0.188844 -0.34997,0.127379 -0.13182,-0.06147 -0.18884,-0.218154 -0.12738,-0.349967 0.0615,-0.131821 0.21816,-0.188844 0.34997,-0.127379 0.13181,0.06147 0.18885,0.218154 0.12738,0.349967 z"
         fill="#151515"
         id="path21-3"
         style="display:inline;fill:none;stroke:#151515;stroke-width:0.35;stroke-dasharray:none;stroke-opacity:1" />
    </g>
  </g>
  <g
     inkscape:groupmode="layer"
     id="layer1"
     inkscape:label="F.SilkS 1">
    <g
       id="g1">
      <path
         id="rect2"
         style="fill:#151515;stroke:#151515;stroke-width:0.009;stroke-dasharray:none;stroke-opacity:1"
         d="m 21.164917,-20.454975 h 15 v 15.0000017 h -15 z" />
      <path
         id="path1222"
         style="display:inline;fill:#f0f0f0;fill-opacity:1;stroke-width:0.00877814"
         d="m 29.116117,-15.834176 a 2.7111204,1.6459017 25.000001 0 0 -1.51309,0.734839 2.7111204,1.6459017 25.000001 0 0 -0.0191,0.05529 l -4.47105,9.5890787 h 5.9831 l 3.42873,-7.3520057 -0.007,-0.0031 a 2.7111204,1.6459017 25.000001 0 0 -1.76216,-2.634981 2.7111204,1.6459017 25.000001 0 0 -1.63969,-0.389124 z" />
      <path
         d="m 23.986787,-13.801696 c -0.0817,-0.18112 0.0169,-0.392497 0.20817,-0.446255 l 2.28124,-0.64112 c 0.266,-0.07476 0.49793,0.195665 0.3835,0.447176 l -1.29057,2.836779 c -0.11563,0.254128 -0.47684,0.253601 -0.59169,-9.59e-4 z"
         fill="#ffab07"
         id="path4"
         style="display:inline;stroke-width:0.00877814" />
      <path
         d="m 30.075167,-16.92258 c 0.0113,-0.04299 0.0631,-0.06016 0.0978,-0.03243 l 0.40186,0.320929 c 0.0181,0.01441 0.0265,0.03773 0.0219,0.06035 l -0.11833,0.577408 c -0.01,0.04774 -0.0686,0.06564 -0.10332,0.03144 l -0.41257,-0.406419 c -0.0157,-0.01544 -0.0219,-0.03809 -0.0163,-0.05937 z"
         fill="#f0f0f0"
         id="path15"
         style="display:inline;stroke-width:0.00877814" />
      <path
         d="m 32.100467,-16.897721 c 0.0251,-0.09185 -0.0526,-0.179179 -0.14678,-0.164923 l -0.82988,0.125676 c -0.049,0.0074 -0.0896,0.04163 -0.10525,0.08858 l -0.30408,0.912945 c -0.0329,0.09908 0.057,0.195305 0.1581,0.169049 l 0.91494,-0.23773 c 0.0457,-0.01186 0.0815,-0.04722 0.0938,-0.0927 z"
         fill="#ffab07"
         id="path17"
         style="display:inline;stroke-width:0.00877814" />
      <path
         d="m 30.933497,-12.481824 c 0,1.0535 -0.78766,0 -1.75929,0 -0.97161,0 -1.75925,1.0535 -1.75925,0 0,-1.053456 0.78764,-1.907455 1.75925,-1.907455 0.97163,0 1.75929,0.853999 1.75929,1.907455 z"
         stroke="#151515"
         stroke-width="0.438908"
         id="path19"
         style="display:inline;fill:#f0f0f0;fill-opacity:1" />
      <path
         d="m 28.958677,-13.252501 c -0.0615,0.131813 -0.21815,0.188845 -0.34997,0.12738 -0.13182,-0.06147 -0.18884,-0.218154 -0.12738,-0.349967 0.0615,-0.131821 0.21816,-0.188844 0.34997,-0.12738 0.13181,0.06147 0.18885,0.218155 0.12738,0.349967 z"
         fill="#151515"
         id="path21"
         style="display:inline;stroke-width:0.00877814" />
      <circle
         cx="28.823849"
         cy="-13.498298"
         r="0.030723497"
         fill="#d9d9d9"
         id="circle23"
         style="display:inline;stroke-width:0.00877814" />
    </g>
    <rect
       width="14.999992"
       height="14.999992"
       rx="0"
       fill="#151515"
       id="rect3"
       x="21.889378"
       y="-0.070479728"
       style="stroke-width:0.00877818" />
    <path
       id="path6"
       d="M 30.681931,4.5527079 C 30.042746,4.5529938 29.533602,4.75791 29.269923,5.1210016 L 26.482781,8.380338 c -0.06673,0.078035 -0.09263,0.1830198 -0.06983,0.2831264 l 0.353285,1.5513766 c 0.02894,0.159164 -0.06085,0.348931 -0.06085,0.348931 l -2.035785,4.365742 h 5.981873 l 3.417957,-7.3298102 c 0.0043,-0.00697 0.0086,-0.013984 0.0127,-0.021045 C 34.466208,6.755021 33.677739,5.5744721 32.321041,4.9418359 31.78028,4.6896775 31.204117,4.5528918 30.681912,4.5526933 Z"
       style="fill:#f0f0f0;fill-opacity:1;stroke-width:0.00877598"
       sodipodi:nodetypes="ccccccccccscc" />
    <path
       d="m 31.624215,3.4628898 c 0.01134,-0.042975 0.0631,-0.060143 0.09777,-0.032417 l 0.401765,0.3208471 c 0.01807,0.014419 0.0265,0.037721 0.02186,0.060335 l -0.1183,0.5772677 c -0.0097,0.047733 -0.06854,0.065628 -0.103295,0.031425 L 31.511538,4.0140289 c -0.0157,-0.015447 -0.02193,-0.038079 -0.01633,-0.05936 z"
       fill="#f0f0f0"
       id="path9"
       style="stroke-width:0.00877598" />
    <path
       d="m 33.649011,3.4877428 c 0.0251,-0.09183 -0.0526,-0.1791333 -0.14673,-0.164884 l -0.82969,0.125647 c -0.0489,0.0074 -0.0896,0.041614 -0.10522,0.088557 l -0.304,0.912722 c -0.0329,0.099055 0.057,0.1952569 0.15805,0.1690079 l 0.91472,-0.2376717 c 0.0456,-0.011869 0.0815,-0.047205 0.0939,-0.092674 z"
       fill="#ffab07"
       id="path10"
       style="stroke-width:0.00877598" />
    <path
       d="m 32.482331,7.9025534 c 0,1.0532383 -0.787468,0 -1.758881,0 -0.971342,0 -1.758796,1.0532383 -1.758796,0 0,-1.0531959 0.787454,-1.9069862 1.758796,-1.9069862 0.971413,0 1.758881,0.8537903 1.758881,1.9069862 z"
       stroke="#151515"
       stroke-width="0.438799"
       id="path11"
       style="fill:#f0f0f0;fill-opacity:1" />
    <path
       id="path12"
       d="m 26.282599,2.44666 c -0.0603,0.00177 -0.08462,0.1046946 -0.07533,0.1442895 l 1.15219,3.8737223 c 0.03461,0.1400912 0.101407,0.1798242 0.189762,0.1141895 0.0113,-0.0084 0.02069,-0.017998 0.03001,-0.028555 0.14396,-0.1625138 1.388221,-1.5670466 1.433686,-1.61665 0.04388,-0.052657 0.04388,-0.1535788 -0.01314,-0.2018465 l -2.669636,-2.26813 c -0.01779,-0.012435 -0.03362,-0.017431 -0.04753,-0.017041 z m -1.530961,3.9769927 c -0.06704,-0.00319 -0.109973,0.089149 -0.05649,0.1467412 0.05662,0.060983 1.417374,1.5320185 1.437302,1.5535731 7.09e-4,7.086e-4 3.55e-4,7.086e-4 0.0011,0.00142 0.043,0.046319 0.102431,0.042659 0.142695,-0.00411 0.0014,-0.00177 0.0025,-0.00319 0.0041,-0.00489 0.04698,-0.054996 0.965394,-1.1304121 0.997531,-1.1811917 0.0293,-0.046309 0.05821,-0.1718705 -0.04328,-0.2466352 -0.02735,-0.020123 -0.06072,-0.026926 -0.09453,-0.030079 -0.340598,-0.031921 -2.306649,-0.2167123 -2.374778,-0.2327366 -0.0047,-0.00106 -0.0092,-0.00177 -0.01371,-0.00177 z"
       style="fill:#ffab07;fill-opacity:1;stroke-width:0.00877598" />
    <path
       d="M 30.507999,7.132066 C 30.446549,7.2638456 30.289898,7.3208642 30.158118,7.2594135 30.026338,7.1979625 29.96932,7.0413124 30.03077,6.9095327 30.09222,6.777746 30.248871,6.7207345 30.380651,6.7821852 c 0.13178,0.061451 0.188798,0.2181011 0.127348,0.3498808 z"
       fill="#151515"
       id="path13"
       style="stroke-width:0.00877598" />
    <circle
       cx="30.373203"
       cy="6.8863277"
       r="0.030715929"
       fill="#d9d9d9"
       id="circle13"
       style="stroke-width:0.00877598" />
    <path
       d="m 9.7348374,3.5333695 c 0.01134,-0.042975 0.0631,-0.060143 0.09777,-0.032417 l 0.4017646,0.3208471 c 0.01807,0.014419 0.0265,0.037721 0.02186,0.060335 l -0.1183,0.5772677 c -0.0097,0.047733 -0.06854,0.065628 -0.103295,0.031425 L 9.6221604,4.0845086 c -0.0157,-0.015447 -0.02193,-0.038079 -0.01633,-0.05936 z"
       fill="#f0f0f0"
       id="path16"
       style="stroke-width:0.00877598;fill:#151515;fill-opacity:1" />
    <path
       d="m 11.759633,3.5582225 c 0.0251,-0.09183 -0.0526,-0.1791333 -0.14673,-0.164884 l -0.82969,0.125647 c -0.0489,0.0074 -0.0896,0.041614 -0.10522,0.088557 l -0.304,0.912722 c -0.0329,0.099055 0.057,0.1952569 0.15805,0.1690079 l 0.91472,-0.2376717 c 0.0456,-0.011869 0.0815,-0.047205 0.0939,-0.092674 z"
       fill="#ffab07"
       id="path18"
       style="stroke-width:0.35;fill:#151515;fill-opacity:1;stroke:none;stroke-opacity:1;stroke-dasharray:none" />
    <path
       d="m 10.592953,7.9730331 c 0,1.0532383 -0.7874676,0 -1.7588806,0 -0.971342,0 -1.758796,1.0532383 -1.758796,0 0,-1.0531959 0.787454,-1.9069862 1.758796,-1.9069862 0.971413,0 1.7588806,0.8537903 1.7588806,1.9069862 z"
       stroke="#151515"
       stroke-width="0.438799"
       id="path20"
       style="fill:none;fill-opacity:1;stroke-width:0.35;stroke-dasharray:none" />
    <path
       id="path22"
       d="m 4.3932214,2.5171397 c -0.0603,0.00177 -0.08462,0.1046946 -0.07533,0.1442895 l 1.15219,3.8737223 c 0.03461,0.1400912 0.101407,0.1798242 0.189762,0.1141895 0.0113,-0.0084 0.02069,-0.017998 0.03001,-0.028555 0.14396,-0.1625138 1.388221,-1.5670466 1.433686,-1.61665 0.04388,-0.052657 0.04388,-0.1535788 -0.01314,-0.2018465 l -2.669636,-2.26813 c -0.01779,-0.012435 -0.03362,-0.017431 -0.04753,-0.017041 z m -1.530961,3.9769927 c -0.06704,-0.00319 -0.109973,0.089149 -0.05649,0.1467412 0.05662,0.060983 1.417374,1.5320185 1.437302,1.5535731 7.09e-4,7.086e-4 3.55e-4,7.086e-4 0.0011,0.00142 0.043,0.046319 0.102431,0.042659 0.142695,-0.00411 0.0014,-0.00177 0.0025,-0.00319 0.0041,-0.00489 0.04698,-0.054996 0.965394,-1.1304121 0.997531,-1.1811917 0.0293,-0.046309 0.05821,-0.1718705 -0.04328,-0.2466352 -0.02735,-0.020123 -0.06072,-0.026926 -0.09453,-0.030079 -0.340598,-0.031921 -2.306649,-0.2167123 -2.374778,-0.2327366 -0.0047,-0.00106 -0.0092,-0.00177 -0.01371,-0.00177 z"
       style="fill:#151515;fill-opacity:1;stroke-width:0.35;stroke:none;stroke-opacity:1;stroke-dasharray:none" />
    <path
       d="m 8.6186214,7.2025457 c -0.06145,0.1317796 -0.218101,0.1887982 -0.349881,0.1273475 -0.13178,-0.061451 -0.188798,-0.2181011 -0.127348,-0.3498808 0.06145,-0.1317867 0.218101,-0.1887982 0.349881,-0.1273475 0.13178,0.061451 0.188798,0.2181011 0.127348,0.3498808 z"
       fill="#151515"
       id="path23"
       style="stroke-width:0.00877598;stroke:none" />
    <path
       id="rect24"
       style="fill:none;stroke:#151515;stroke-width:0.34999999;stroke-dasharray:none;stroke-opacity:1;stroke-linejoin:round"
       d="m -0.174601,0.175 v 15.000118 h 2.780192 l 2.035535,-4.365625 c 0,0 0.089918,-0.190169 0.060978,-0.349333 L 4.348637,8.9088338 C 4.325837,8.8087273 4.35167,8.7036819 4.4184,8.625647 L 5.8121134,6.9960307 7.2058269,5.3664144 C 7.4695056,5.0033232 7.9784426,4.7982595 8.617627,4.7979736 c 0.5222045,1.985e-4 1.0984164,0.1369654 1.639176,0.3891236 1.356697,0.6326355 2.14521,1.8134113 1.761133,2.6370483 -0.0041,0.00706 -0.0081,0.014217 -0.0124,0.021187 L 8.5871379,15.175118 H 14.825 V 0.175 Z"
       sodipodi:nodetypes="ccccccccccccccccc" />
  </g>
</svg>
