<?xml version="1.0" encoding="UTF-8" standalone="no"?>
<!-- Created with Inkscape (http://www.inkscape.org/) -->

<svg
   width="15mm"
   height="15mm"
   viewBox="0 0 15 15"
   version="1.1"
   id="svg5"
   sodipodi:docname="logopdc.svg"
   inkscape:version="1.2 (dc2aedaf03, 2022-05-15)"
   xmlns:inkscape="http://www.inkscape.org/namespaces/inkscape"
   xmlns:sodipodi="http://sodipodi.sourceforge.net/DTD/sodipodi-0.dtd"
   xmlns="http://www.w3.org/2000/svg"
   xmlns:svg="http://www.w3.org/2000/svg">
  <sodipodi:namedview
     id="namedview7"
     pagecolor="#ffffff"
     bordercolor="#000000"
     borderopacity="0.25"
     inkscape:showpageshadow="2"
     inkscape:pageopacity="0.0"
     inkscape:pagecheckerboard="0"
     inkscape:deskcolor="#d1d1d1"
     inkscape:document-units="mm"
     showgrid="false"
     inkscape:zoom="4"
     inkscape:cx="73.125"
     inkscape:cy="15.75"
     inkscape:window-width="1920"
     inkscape:window-height="1009"
     inkscape:window-x="-8"
     inkscape:window-y="-8"
     inkscape:window-maximized="1"
     inkscape:current-layer="g143" />
  <defs
     id="defs2" />
  <g
     inkscape:label="F.SilkS"
     inkscape:groupmode="layer"
     id="g143"
     transform="translate(-110.83579,0.45834177)">
    <g
       id="g8548"
       transform="translate(93.530088,-0.01690612)">
      <path
         id="path7054"
         style="fill:none;fill-opacity:1;stroke:#151515;stroke-width:0.2;stroke-linecap:round;stroke-linejoin:round;stroke-dasharray:none;stroke-opacity:1"
         d="M 17.305584,-0.44143565 V 14.558683 h 1.947685 l 4.44779,-9.5374038 c 0.01212,-0.03636 0.02625,-0.07186 0.04237,-0.106453 0.02951,-0.06303 0.06559,-0.122926 0.108004,-0.179317 0.04222,-0.0566 0.09072,-0.109593 0.145211,-0.158647 0.05455,-0.0489 0.114963,-0.09378 0.180867,-0.134359 0.06592,-0.04063 0.137199,-0.07688 0.213424,-0.10852 0.07617,-0.03158 0.157124,-0.05851 0.242362,-0.08061 0.08528,-0.02213 0.174692,-0.03939 0.267684,-0.05168 0.09292,-0.01224 0.189235,-0.01949 0.288355,-0.0217 h 5.16e-4 c 0.08899,-0.002 0.180084,7.8e-5 0.272852,0.0062 0.09269,0.0061 0.186892,0.01632 0.282153,0.03049 0.09536,0.01414 0.191639,0.03226 0.288355,0.05426 0.09685,0.02202 0.193987,0.0479 0.290938,0.07751 0.09679,0.02963 0.19324,0.06293 0.288871,0.09974 0.09569,0.03674 0.190407,0.07694 0.283704,0.120406 0.09877,0.04613 0.195748,0.09583 0.290421,0.148828 0.09481,0.05304 0.187135,0.1093 0.276469,0.168465 0.08944,0.05915 0.175721,0.121099 0.258383,0.185519 0.08245,0.06427 0.161138,0.130884 0.235644,0.199471 0.07457,0.06873 0.144809,0.139307 0.210323,0.211356 0.06558,0.072 0.126321,0.145342 0.181901,0.219625 0.05551,0.07444 0.105727,0.149681 0.150379,0.225309 0.0448,0.0755 0.08397,0.151256 0.117305,0.22686 0.03316,0.07554 0.06042,0.150778 0.08165,0.225309 0.02129,0.07471 0.03648,0.148567 0.04548,0.221175 0.0091,0.07247 0.01204,0.143568 0.0088,0.212907 -0.0035,0.06937 -0.01312,0.136847 -0.02894,0.202055 -0.01564,0.06519 -0.03738,0.128003 -0.06511,0.188102 l 0.0057,0.0031 -3.428214,7.3520068 h 7.068786 V -0.44143565 h -2.354223 z"
         sodipodi:nodetypes="cccccccccccccccccccccccccccccccccccccc" />
      <path
         d="m 20.00573,6.2118432 c -0.0817,-0.1811194 0.0169,-0.392497 0.20817,-0.4462544 l 2.28124,-0.6411203 c 0.266,-0.074764 0.49793,0.1956648 0.3835,0.447176 l -1.29057,2.8367799 c -0.11563,0.254127 -0.47684,0.2536 -0.59169,-9.6e-4 z"
         fill="#ffab07"
         id="path4-3"
         style="display:inline;fill:none;stroke:#151515;stroke-width:0.2;stroke-dasharray:none;stroke-opacity:1" />
      <path
         d="m 26.09411,3.0909592 c 0.0113,-0.042987 0.0631,-0.060157 0.0978,-0.032426 l 0.40186,0.3209289 c 0.0181,0.014414 0.0265,0.037729 0.0219,0.06035 l -0.11833,0.5774086 c -0.01,0.047744 -0.0686,0.065643 -0.10332,0.031443 L 25.98145,3.6422445 c -0.0157,-0.015441 -0.0219,-0.038088 -0.0163,-0.059375 z"
         fill="#f0f0f0"
         id="path15-7"
         style="display:inline;fill:none;stroke:#151515;stroke-width:0.2;stroke-dasharray:none;stroke-opacity:1" />
      <path
         d="m 28.11941,3.1158189 c 0.0251,-0.091854 -0.0526,-0.1791794 -0.14678,-0.1649236 l -0.82988,0.1256766 c -0.049,0.00741 -0.0896,0.041626 -0.10525,0.08858 l -0.30408,0.9129443 c -0.0329,0.099079 0.057,0.1953049 0.1581,0.1690494 L 27.80646,4.009416 c 0.0457,-0.01186 0.0815,-0.047218 0.0938,-0.092697 z"
         fill="#ffab07"
         id="path17-8"
         style="display:inline;fill:none;stroke:#151515;stroke-width:0.2;stroke-dasharray:none;stroke-opacity:1" />
      <path
         d="m 26.95244,7.5317164 c 0,1.053499 -0.78766,0 -1.75929,0 -0.97161,0 -1.75925,1.053499 -1.75925,0 0,-1.053457 0.78764,-1.9074557 1.75925,-1.9074557 0.97163,0 1.75929,0.8539987 1.75929,1.9074557 z"
         stroke="#151515"
         stroke-width="0.438908"
         id="path19-8"
         style="display:inline;fill:none;fill-opacity:1;stroke-width:0.2;stroke-dasharray:none" />
      <path
         d="m 24.97762,6.7610394 c -0.0615,0.131812 -0.21815,0.188844 -0.34997,0.127379 -0.13182,-0.06147 -0.18884,-0.218154 -0.12738,-0.349967 0.0615,-0.131821 0.21816,-0.188844 0.34997,-0.127379 0.13181,0.06147 0.18885,0.218154 0.12738,0.349967 z"
         fill="#151515"
         id="path21-3"
         style="display:inline;fill:none;stroke:#151515;stroke-width:0.2;stroke-dasharray:none;stroke-opacity:1" />
    </g>
  </g>
  <g
     inkscape:groupmode="layer"
     id="layer1"
     inkscape:label="F.SilkS 1">
    <g
       id="g8559"
       transform="translate(-93.904266,15.986702)">
      <path
         id="rect2"
         style="fill:#151515;stroke:#151515;stroke-width:0.009;stroke-dasharray:none;stroke-opacity:1"
         d="m 110.83579,-0.45834377 h 15 V 14.541658 h -15 z" />
      <path
         id="path1222"
         style="display:inline;fill:#f0f0f0;fill-opacity:1;stroke-width:0.00877814"
         d="m 117.28068,4.8979176 -4.49697,9.6437324 h 5.98337 l 3.42828,-7.3519859 z" />
      <path
         d="m 113.65766,6.194935 c -0.0817,-0.1811194 0.0169,-0.392497 0.20817,-0.4462544 l 2.28124,-0.6411203 c 0.266,-0.074764 0.49793,0.1956648 0.3835,0.447176 L 115.24,8.3915158 c -0.11563,0.2541273 -0.47684,0.2536006 -0.59169,-9.595e-4 z"
         fill="#ffab07"
         id="path4"
         style="display:inline;stroke-width:0.00877814" />
      <ellipse
         cx="111.06699"
         cy="-45.123428"
         rx="2.7111204"
         ry="1.6459017"
         transform="rotate(25.000001)"
         fill="#f0f0f0"
         id="ellipse13"
         style="stroke-width:0.00877814" />
      <path
         d="m 119.74604,3.074051 c 0.0113,-0.042987 0.0631,-0.060157 0.0978,-0.032426 l 0.40186,0.3209289 c 0.0181,0.014414 0.0265,0.037729 0.0219,0.06035 l -0.11833,0.5774086 c -0.01,0.047744 -0.0686,0.065643 -0.10332,0.031443 l -0.41257,-0.4064192 c -0.0157,-0.015441 -0.0219,-0.038088 -0.0163,-0.059375 z"
         fill="#f0f0f0"
         id="path15"
         style="display:inline;stroke-width:0.00877814" />
      <path
         d="m 121.77134,3.0989107 c 0.0251,-0.091854 -0.0526,-0.1791794 -0.14678,-0.1649236 l -0.82988,0.1256766 c -0.049,0.00741 -0.0896,0.041626 -0.10525,0.08858 l -0.30408,0.9129443 c -0.0329,0.099079 0.057,0.1953049 0.1581,0.1690494 l 0.91494,-0.2377296 c 0.0457,-0.01186 0.0815,-0.047218 0.0938,-0.092697 z"
         fill="#ffab07"
         id="path17"
         style="display:inline;stroke-width:0.00877814" />
      <path
         d="m 120.60437,7.5148077 c 0,1.0534999 -0.78766,0 -1.75929,0 -0.97161,0 -1.75925,1.0534999 -1.75925,0 0,-1.0534561 0.78764,-1.9074552 1.75925,-1.9074552 0.97163,0 1.75929,0.8539991 1.75929,1.9074552 z"
         stroke="#151515"
         stroke-width="0.438908"
         id="path19"
         style="display:inline;fill:#f0f0f0;fill-opacity:1" />
      <path
         d="m 118.62955,6.7441307 c -0.0615,0.1318125 -0.21815,0.1888442 -0.34997,0.1273796 -0.13182,-0.061465 -0.18884,-0.2181543 -0.12738,-0.349967 0.0615,-0.1318212 0.21816,-0.188844 0.34997,-0.1273796 0.13181,0.061465 0.18885,0.2181545 0.12738,0.349967 z"
         fill="#151515"
         id="path21"
         style="display:inline;stroke-width:0.00877814" />
      <circle
         cx="118.49472"
         cy="6.4983339"
         r="0.030723497"
         fill="#d9d9d9"
         id="circle23"
         style="display:inline;stroke-width:0.00877814" />
    </g>
  </g>
</svg>
