<?xml version="1.0" encoding="UTF-8" standalone="no"?>
<!-- Created with Inkscape (http://www.inkscape.org/) -->

<svg
   width="15mm"
   height="15mm"
   viewBox="0 0 15 15"
   version="1.1"
   id="svg5"
   sodipodi:docname="LOGO.svg"
   inkscape:version="1.4 (86a8ad7, 2024-10-11)"
   xmlns:inkscape="http://www.inkscape.org/namespaces/inkscape"
   xmlns:sodipodi="http://sodipodi.sourceforge.net/DTD/sodipodi-0.dtd"
   xmlns="http://www.w3.org/2000/svg"
   xmlns:svg="http://www.w3.org/2000/svg">
  <sodipodi:namedview
     id="namedview7"
     pagecolor="#ffffff"
     bordercolor="#000000"
     borderopacity="0.25"
     inkscape:showpageshadow="2"
     inkscape:pageopacity="0.0"
     inkscape:pagecheckerboard="0"
     inkscape:deskcolor="#d1d1d1"
     inkscape:document-units="mm"
     showgrid="false"
     inkscape:zoom="4"
     inkscape:cx="161.625"
     inkscape:cy="-33.125"
     inkscape:window-width="1366"
     inkscape:window-height="697"
     inkscape:window-x="-8"
     inkscape:window-y="-8"
     inkscape:window-maximized="1"
     inkscape:current-layer="g143" />
  <defs
     id="defs2" />
  <g
     inkscape:label="F.SilkS"
     inkscape:groupmode="layer"
     id="g143"
     transform="translate(-110.83579,0.45834177)">
    <rect
       style="fill:#ffffff;fill-opacity:1;stroke:none;stroke-width:0.217893;stroke-linecap:round;stroke-linejoin:round;stroke-dasharray:none;stroke-opacity:1;paint-order:normal"
       id="rect32"
       width="18.69293"
       height="18.692308"
       x="150.19771"
       y="-22.960283"
       ry="2.8341734" />
    <path
       d="m 161.40667,2.9475087 c 0.0111,-0.041993 0.0617,-0.058769 0.0955,-0.031676 l 0.39258,0.3135149 c 0.0177,0.014089 0.0259,0.036859 0.0214,0.058956 l -0.1156,0.5640755 c -0.01,0.046642 -0.067,0.064128 -0.10093,0.030707 l -0.40305,-0.3970333 c -0.0153,-0.015094 -0.0214,-0.037209 -0.016,-0.058003 z"
       fill="#f0f0f0"
       id="path16"
       style="fill:#151515;fill-opacity:1;stroke-width:0.00857543" />
    <path
       d="m 163.38519,2.9717937 c 0.0245,-0.089731 -0.0514,-0.1750396 -0.14337,-0.161116 l -0.81073,0.1227757 c -0.0478,0.00723 -0.0876,0.040663 -0.10282,0.086533 l -0.29705,0.8918641 c -0.0322,0.096791 0.0557,0.1907947 0.15444,0.1651456 l 0.89381,-0.2322403 c 0.0446,-0.011598 0.0796,-0.046126 0.0917,-0.090556 z"
       fill="#ffab07"
       id="path18"
       style="fill:#151515;fill-opacity:1;stroke:none;stroke-width:0.342002;stroke-dasharray:none;stroke-opacity:1" />
    <path
       d="m 162.24517,7.2857141 c 0,1.029169 -0.76947,0 -1.71868,0 -0.94914,0 -1.7186,1.029169 -1.7186,0 0,-1.0291276 0.76946,-1.8634065 1.7186,-1.8634065 0.94921,0 1.71868,0.8342789 1.71868,1.8634065 z"
       stroke="#151515"
       stroke-width="0.438799"
       id="path20"
       style="fill:none;fill-opacity:1;stroke-width:0.442;stroke-dasharray:none" />
    <path
       id="path22"
       d="m 155.64143,2.086794 c -0.0589,0.00173 -0.0827,0.1023021 -0.0736,0.1409921 l 1.12586,3.7851974 c 0.0338,0.1368897 0.0991,0.1757147 0.18542,0.11158 0.011,-0.00821 0.0202,-0.017587 0.0293,-0.027902 0.14067,-0.1588004 1.35649,-1.5312359 1.40092,-1.5797057 0.0429,-0.051454 0.0429,-0.1500691 -0.0128,-0.1972338 L 155.6879,2.1034249 c -0.0174,-0.012151 -0.0328,-0.017033 -0.0464,-0.016652 z m -1.49598,3.8861078 c -0.0655,-0.00312 -0.10746,0.087112 -0.0552,0.1433878 0.0553,0.059589 1.38499,1.4970078 1.40446,1.5180698 6.9e-4,6.924e-4 3.5e-4,6.924e-4 0.001,0.00139 0.042,0.04526 0.10009,0.041684 0.13943,-0.00402 0.001,-0.00173 0.002,-0.00312 0.004,-0.00478 0.0459,-0.053739 0.94334,-1.1045792 0.97474,-1.1541983 0.0286,-0.045251 0.0569,-0.1679428 -0.0423,-0.2409989 -0.0267,-0.01966 -0.0593,-0.026307 -0.0924,-0.029389 -0.33282,-0.031191 -2.25394,-0.2117598 -2.32051,-0.2274179 -0.005,-0.00104 -0.009,-0.00173 -0.0134,-0.00173 z"
       style="fill:#151515;fill-opacity:1;stroke:none;stroke-width:0.342002;stroke-dasharray:none;stroke-opacity:1" />
    <path
       d="m 160.31596,6.5328344 c -0.06,0.128768 -0.21311,0.1844836 -0.34188,0.1244372 -0.12877,-0.060047 -0.18448,-0.2131169 -0.12444,-0.3418851 0.0601,-0.128775 0.21312,-0.1844836 0.34189,-0.1244372 0.12876,0.060047 0.18448,0.2131169 0.12443,0.3418851 z"
       fill="#151515"
       id="path23"
       style="stroke:none;stroke-width:0.00857543" />
    <path
       id="rect24"
       style="fill:none;stroke:#151515;stroke-width:0.542;stroke-linejoin:round;stroke-dasharray:none;stroke-opacity:1"
       d="M 151.72369,-0.33411316 V 14.323212 h 2.71666 l 1.98902,-4.265859 c 0,0 0.0879,-0.1858227 0.0596,-0.3413499 l -0.34539,-1.5158739 c -0.0223,-0.097819 0.003,-0.2004636 0.0682,-0.2767152 l 1.36187,-1.5923752 1.36186,-1.5923752 c 0.25765,-0.3547936 0.75496,-0.5551711 1.37953,-0.5554504 0.51027,1.939e-4 1.07332,0.1338353 1.60172,0.3802311 1.32569,0.618178 2.09618,1.77197 1.72088,2.5767846 -0.004,0.0069 -0.008,0.013892 -0.0121,0.020703 l -3.34027,7.1622801 h 6.09531 V -0.33411316 Z"
       sodipodi:nodetypes="ccccccccccccccccc" />
  </g>
  <g
     id="g8548"
     transform="translate(-17.305643,-19.666897)"
     style="stroke-width:0.35;stroke-dasharray:none">
    <path
       id="path7054"
       style="fill:none;fill-opacity:1;stroke:#151515;stroke-width:0.35;stroke-linecap:round;stroke-linejoin:round;stroke-dasharray:none;stroke-opacity:1"
       d="M 17.305584,-0.44143565 V 14.558683 h 1.947685 l 4.44779,-9.5374038 c 0.01212,-0.03636 0.02625,-0.07186 0.04237,-0.106453 0.02951,-0.06303 0.06559,-0.122926 0.108004,-0.179317 0.04222,-0.0566 0.09072,-0.109593 0.145211,-0.158647 0.05455,-0.0489 0.114963,-0.09378 0.180867,-0.134359 0.06592,-0.04063 0.137199,-0.07688 0.213424,-0.10852 0.07617,-0.03158 0.157124,-0.05851 0.242362,-0.08061 0.08528,-0.02213 0.174692,-0.03939 0.267684,-0.05168 0.09292,-0.01224 0.189235,-0.01949 0.288355,-0.0217 h 5.16e-4 c 0.08899,-0.002 0.180084,7.8e-5 0.272852,0.0062 0.09269,0.0061 0.186892,0.01632 0.282153,0.03049 0.09536,0.01414 0.191639,0.03226 0.288355,0.05426 0.09685,0.02202 0.193987,0.0479 0.290938,0.07751 0.09679,0.02963 0.19324,0.06293 0.288871,0.09974 0.09569,0.03674 0.190407,0.07694 0.283704,0.120406 0.09877,0.04613 0.195748,0.09583 0.290421,0.148828 0.09481,0.05304 0.187135,0.1093 0.276469,0.168465 0.08944,0.05915 0.175721,0.121099 0.258383,0.185519 0.08245,0.06427 0.161138,0.130884 0.235644,0.199471 0.07457,0.06873 0.144809,0.139307 0.210323,0.211356 0.06558,0.072 0.126321,0.145342 0.181901,0.219625 0.05551,0.07444 0.105727,0.149681 0.150379,0.225309 0.0448,0.0755 0.08397,0.151256 0.117305,0.22686 0.03316,0.07554 0.06042,0.150778 0.08165,0.225309 0.02129,0.07471 0.03648,0.148567 0.04548,0.221175 0.0091,0.07247 0.01204,0.143568 0.0088,0.212907 -0.0035,0.06937 -0.01312,0.136847 -0.02894,0.202055 -0.01564,0.06519 -0.03738,0.128003 -0.06511,0.188102 l 0.0057,0.0031 -3.428214,7.3520068 h 7.068786 V -0.44143565 h -2.354223 z"
       sodipodi:nodetypes="cccccccccccccccccccccccccccccccccccccc" />
    <path
       d="m 20.00573,6.2118432 c -0.0817,-0.1811194 0.0169,-0.392497 0.20817,-0.4462544 l 2.28124,-0.6411203 c 0.266,-0.074764 0.49793,0.1956648 0.3835,0.447176 l -1.29057,2.8367799 c -0.11563,0.254127 -0.47684,0.2536 -0.59169,-9.6e-4 z"
       fill="#ffab07"
       id="path4-3"
       style="display:inline;fill:none;stroke:#151515;stroke-width:0.35;stroke-dasharray:none;stroke-opacity:1" />
    <path
       d="m 26.09411,3.0909592 c 0.0113,-0.042987 0.0631,-0.060157 0.0978,-0.032426 l 0.40186,0.3209289 c 0.0181,0.014414 0.0265,0.037729 0.0219,0.06035 l -0.11833,0.5774086 c -0.01,0.047744 -0.0686,0.065643 -0.10332,0.031443 L 25.98145,3.6422445 c -0.0157,-0.015441 -0.0219,-0.038088 -0.0163,-0.059375 z"
       fill="#f0f0f0"
       id="path15-7"
       style="display:inline;fill:none;stroke:#151515;stroke-width:0.35;stroke-dasharray:none;stroke-opacity:1" />
    <path
       d="m 28.11941,3.1158189 c 0.0251,-0.091854 -0.0526,-0.1791794 -0.14678,-0.1649236 l -0.82988,0.1256766 c -0.049,0.00741 -0.0896,0.041626 -0.10525,0.08858 l -0.30408,0.9129443 c -0.0329,0.099079 0.057,0.1953049 0.1581,0.1690494 L 27.80646,4.009416 c 0.0457,-0.01186 0.0815,-0.047218 0.0938,-0.092697 z"
       fill="#ffab07"
       id="path17-8"
       style="display:inline;fill:none;stroke:#151515;stroke-width:0.35;stroke-dasharray:none;stroke-opacity:1" />
    <path
       d="m 26.95244,7.5317164 c 0,1.053499 -0.78766,0 -1.75929,0 -0.97161,0 -1.75925,1.053499 -1.75925,0 0,-1.053457 0.78764,-1.9074557 1.75925,-1.9074557 0.97163,0 1.75929,0.8539987 1.75929,1.9074557 z"
       stroke="#151515"
       stroke-width="0.438908"
       id="path19-8"
       style="display:inline;fill:none;fill-opacity:1;stroke-width:0.35;stroke-dasharray:none" />
    <path
       d="m 24.97762,6.7610394 c -0.0615,0.131812 -0.21815,0.188844 -0.34997,0.127379 -0.13182,-0.06147 -0.18884,-0.218154 -0.12738,-0.349967 0.0615,-0.131821 0.21816,-0.188844 0.34997,-0.127379 0.13181,0.06147 0.18885,0.218154 0.12738,0.349967 z"
       fill="#151515"
       id="path21-3"
       style="display:inline;fill:none;stroke:#151515;stroke-width:0.35;stroke-dasharray:none;stroke-opacity:1" />
  </g>
  <g
     inkscape:groupmode="layer"
     id="layer1"
     inkscape:label="F.SilkS 1">
    <g
       id="g1">
      <path
         id="rect2"
         style="fill:#151515;stroke:#151515;stroke-width:0.009;stroke-dasharray:none;stroke-opacity:1"
         d="m 21.164917,-20.454975 h 15 v 15.0000017 h -15 z" />
      <path
         id="path1222"
         style="display:inline;fill:#f0f0f0;fill-opacity:1;stroke-width:0.00877814"
         d="m 29.116117,-15.834176 a 2.7111204,1.6459017 25.000001 0 0 -1.51309,0.734839 2.7111204,1.6459017 25.000001 0 0 -0.0191,0.05529 l -4.47105,9.5890787 h 5.9831 l 3.42873,-7.3520057 -0.007,-0.0031 a 2.7111204,1.6459017 25.000001 0 0 -1.76216,-2.634981 2.7111204,1.6459017 25.000001 0 0 -1.63969,-0.389124 z" />
      <path
         d="m 23.986787,-13.801696 c -0.0817,-0.18112 0.0169,-0.392497 0.20817,-0.446255 l 2.28124,-0.64112 c 0.266,-0.07476 0.49793,0.195665 0.3835,0.447176 l -1.29057,2.836779 c -0.11563,0.254128 -0.47684,0.253601 -0.59169,-9.59e-4 z"
         fill="#ffab07"
         id="path4"
         style="display:inline;stroke-width:0.00877814" />
      <path
         d="m 30.075167,-16.92258 c 0.0113,-0.04299 0.0631,-0.06016 0.0978,-0.03243 l 0.40186,0.320929 c 0.0181,0.01441 0.0265,0.03773 0.0219,0.06035 l -0.11833,0.577408 c -0.01,0.04774 -0.0686,0.06564 -0.10332,0.03144 l -0.41257,-0.406419 c -0.0157,-0.01544 -0.0219,-0.03809 -0.0163,-0.05937 z"
         fill="#f0f0f0"
         id="path15"
         style="display:inline;stroke-width:0.00877814" />
      <path
         d="m 32.100467,-16.897721 c 0.0251,-0.09185 -0.0526,-0.179179 -0.14678,-0.164923 l -0.82988,0.125676 c -0.049,0.0074 -0.0896,0.04163 -0.10525,0.08858 l -0.30408,0.912945 c -0.0329,0.09908 0.057,0.195305 0.1581,0.169049 l 0.91494,-0.23773 c 0.0457,-0.01186 0.0815,-0.04722 0.0938,-0.0927 z"
         fill="#ffab07"
         id="path17"
         style="display:inline;stroke-width:0.00877814" />
      <path
         d="m 30.933497,-12.481824 c 0,1.0535 -0.78766,0 -1.75929,0 -0.97161,0 -1.75925,1.0535 -1.75925,0 0,-1.053456 0.78764,-1.907455 1.75925,-1.907455 0.97163,0 1.75929,0.853999 1.75929,1.907455 z"
         stroke="#151515"
         stroke-width="0.438908"
         id="path19"
         style="display:inline;fill:#f0f0f0;fill-opacity:1" />
      <path
         d="m 28.958677,-13.252501 c -0.0615,0.131813 -0.21815,0.188845 -0.34997,0.12738 -0.13182,-0.06147 -0.18884,-0.218154 -0.12738,-0.349967 0.0615,-0.131821 0.21816,-0.188844 0.34997,-0.12738 0.13181,0.06147 0.18885,0.218155 0.12738,0.349967 z"
         fill="#151515"
         id="path21"
         style="display:inline;stroke-width:0.00877814" />
      <circle
         cx="28.823849"
         cy="-13.498298"
         r="0.030723497"
         fill="#d9d9d9"
         id="circle23"
         style="display:inline;stroke-width:0.00877814" />
    </g>
    <rect
       width="14.999992"
       height="14.999992"
       rx="0"
       fill="#151515"
       id="rect3"
       x="21.889378"
       y="-0.070479728"
       style="stroke-width:0.00877818"
       inkscape:export-filename="..\..\..\..\..\..\..\Desktop\rect3.svg"
       inkscape:export-xdpi="450"
       inkscape:export-ydpi="450" />
    <path
       id="path6"
       d="M 30.681931,4.5527079 C 30.042746,4.5529938 29.533602,4.75791 29.269923,5.1210016 L 26.482781,8.380338 c -0.06673,0.078035 -0.09263,0.1830198 -0.06983,0.2831264 l 0.353285,1.5513766 c 0.02894,0.159164 -0.06085,0.348931 -0.06085,0.348931 l -2.035785,4.365742 h 5.981873 l 3.417957,-7.3298102 c 0.0043,-0.00697 0.0086,-0.013984 0.0127,-0.021045 C 34.466208,6.755021 33.677739,5.5744721 32.321041,4.9418359 31.78028,4.6896775 31.204117,4.5528918 30.681912,4.5526933 Z"
       style="fill:#f0f0f0;fill-opacity:1;stroke-width:0.00877598"
       sodipodi:nodetypes="ccccccccccscc" />
    <path
       d="m 31.624215,3.4628898 c 0.01134,-0.042975 0.0631,-0.060143 0.09777,-0.032417 l 0.401765,0.3208471 c 0.01807,0.014419 0.0265,0.037721 0.02186,0.060335 l -0.1183,0.5772677 c -0.0097,0.047733 -0.06854,0.065628 -0.103295,0.031425 L 31.511538,4.0140289 c -0.0157,-0.015447 -0.02193,-0.038079 -0.01633,-0.05936 z"
       fill="#f0f0f0"
       id="path9"
       style="stroke-width:0.00877598" />
    <path
       d="m 33.649011,3.4877428 c 0.0251,-0.09183 -0.0526,-0.1791333 -0.14673,-0.164884 l -0.82969,0.125647 c -0.0489,0.0074 -0.0896,0.041614 -0.10522,0.088557 l -0.304,0.912722 c -0.0329,0.099055 0.057,0.1952569 0.15805,0.1690079 l 0.91472,-0.2376717 c 0.0456,-0.011869 0.0815,-0.047205 0.0939,-0.092674 z"
       fill="#ffab07"
       id="path10"
       style="stroke-width:0.00877598" />
    <path
       d="m 32.482331,7.9025534 c 0,1.0532383 -0.787468,0 -1.758881,0 -0.971342,0 -1.758796,1.0532383 -1.758796,0 0,-1.0531959 0.787454,-1.9069862 1.758796,-1.9069862 0.971413,0 1.758881,0.8537903 1.758881,1.9069862 z"
       stroke="#151515"
       stroke-width="0.438799"
       id="path11"
       style="fill:#f0f0f0;fill-opacity:1" />
    <path
       id="path12"
       d="m 26.282599,2.44666 c -0.0603,0.00177 -0.08462,0.1046946 -0.07533,0.1442895 l 1.15219,3.8737223 c 0.03461,0.1400912 0.101407,0.1798242 0.189762,0.1141895 0.0113,-0.0084 0.02069,-0.017998 0.03001,-0.028555 0.14396,-0.1625138 1.388221,-1.5670466 1.433686,-1.61665 0.04388,-0.052657 0.04388,-0.1535788 -0.01314,-0.2018465 l -2.669636,-2.26813 c -0.01779,-0.012435 -0.03362,-0.017431 -0.04753,-0.017041 z m -1.530961,3.9769927 c -0.06704,-0.00319 -0.109973,0.089149 -0.05649,0.1467412 0.05662,0.060983 1.417374,1.5320185 1.437302,1.5535731 7.09e-4,7.086e-4 3.55e-4,7.086e-4 0.0011,0.00142 0.043,0.046319 0.102431,0.042659 0.142695,-0.00411 0.0014,-0.00177 0.0025,-0.00319 0.0041,-0.00489 0.04698,-0.054996 0.965394,-1.1304121 0.997531,-1.1811917 0.0293,-0.046309 0.05821,-0.1718705 -0.04328,-0.2466352 -0.02735,-0.020123 -0.06072,-0.026926 -0.09453,-0.030079 -0.340598,-0.031921 -2.306649,-0.2167123 -2.374778,-0.2327366 -0.0047,-0.00106 -0.0092,-0.00177 -0.01371,-0.00177 z"
       style="fill:#ffab07;fill-opacity:1;stroke-width:0.00877598" />
    <path
       d="M 30.507999,7.132066 C 30.446549,7.2638456 30.289898,7.3208642 30.158118,7.2594135 30.026338,7.1979625 29.96932,7.0413124 30.03077,6.9095327 30.09222,6.777746 30.248871,6.7207345 30.380651,6.7821852 c 0.13178,0.061451 0.188798,0.2181011 0.127348,0.3498808 z"
       fill="#151515"
       id="path13"
       style="stroke-width:0.00877598" />
    <circle
       cx="30.373203"
       cy="6.8863277"
       r="0.030715929"
       fill="#d9d9d9"
       id="circle13"
       style="stroke-width:0.00877598" />
    <path
       id="rect4"
       style="fill:none;stroke:#000000;stroke-width:0.65;stroke-dasharray:none;stroke-opacity:1"
       d="m 43.258858,-20.655586 c -1.135989,0 -2.050521,0.914532 -2.050521,2.050521 v 10.8985587 c 0,1.1359889 0.914532,2.0505208 2.050521,2.0505208 h 0.729671 l 2.036052,-4.3656245 c 0,0 0.0894,-0.189652 0.06046,-0.348816 l -0.35295,-1.551326 c -0.0228,-0.100107 0.003,-0.205157 0.06976,-0.283187 l 2.78691,-3.259233 c 0.263679,-0.363091 0.773132,-0.568155 1.412317,-0.568441 0.534607,-0.04114 1.097899,0.136965 1.63866,0.389124 1.356698,0.632636 2.14521,1.81341 1.761133,2.637048 -0.0041,0.0071 -0.0081,0.01367 -0.0124,0.02067 l -3.417879,7.3297845 h 4.187341 c 1.135989,0 2.050521,-0.9145319 2.050521,-2.0505208 V -18.605066 c 0,-1.135989 -0.914532,-2.050521 -2.050521,-2.050521 z" />
    <path
       d="m 51.47928,-17.140773 c 0.01134,-0.04298 0.0631,-0.06014 0.09777,-0.03242 l 0.401765,0.320847 c 0.01807,0.01442 0.0265,0.03772 0.02186,0.06034 l -0.1183,0.577267 c -0.0097,0.04773 -0.06854,0.06563 -0.103295,0.03143 l -0.412477,-0.406318 c -0.0157,-0.01545 -0.02193,-0.03808 -0.01633,-0.05936 z"
       fill="#f0f0f0"
       id="path7"
       style="fill:none;stroke:#000000;stroke-width:0.27;stroke-dasharray:none;stroke-opacity:1"
       sodipodi:nodetypes="ccccccccc" />
    <path
       d="m 53.607307,-17.083851 c 0.0251,-0.09183 -0.0526,-0.179134 -0.14673,-0.164884 l -0.82969,0.125647 c -0.0489,0.0074 -0.0896,0.04161 -0.10522,0.08856 l -0.304,0.912722 c -0.0329,0.09905 0.057,0.195256 0.15805,0.169007 l 0.91472,-0.237671 c 0.0456,-0.01187 0.0815,-0.0472 0.0939,-0.09267 z"
       fill="#ffab07"
       id="path8"
       style="fill:none;stroke:#000000;stroke-width:0.36;stroke-linecap:round;stroke-linejoin:round;stroke-dasharray:none;stroke-opacity:1;paint-order:normal"
       sodipodi:nodetypes="ccccccccc" />
    <path
       d="m 51.801278,-12.68274 c 0,1.053238 -0.787468,0 -1.758881,0 -0.971342,0 -1.758796,1.053238 -1.758796,0 0,-1.053196 0.787454,-1.906986 1.758796,-1.906986 0.971413,0 1.758881,0.85379 1.758881,1.906986 z"
       stroke="#151515"
       stroke-width="0.438799"
       id="path14"
       style="fill:#000000;fill-opacity:0;stroke:#000000;stroke-width:0.55;stroke-dasharray:none;stroke-opacity:1"
       sodipodi:nodetypes="sssss" />
    <path
       id="path24"
       d="m 45.336963,-18.33707 c -0.0603,0.0018 -0.08462,0.104694 -0.07533,0.144289 l 1.15219,3.873722 c 0.03461,0.140092 0.101407,0.179825 0.189762,0.11419 0.0113,-0.0084 0.02069,-0.018 0.03001,-0.02855 0.14396,-0.162514 1.388221,-1.567047 1.433686,-1.61665 0.04388,-0.05266 0.04388,-0.153579 -0.01314,-0.201847 l -2.669636,-2.268134 c -0.01779,-0.01243 -0.03362,-0.01743 -0.04753,-0.01704 z m -1.530961,3.976992 c -0.06704,-0.0032 -0.109973,0.08915 -0.05649,0.146742 0.05662,0.06098 1.417374,1.532018 1.437302,1.553573 7.09e-4,7.08e-4 3.55e-4,7.08e-4 0.0011,0.0014 0.043,0.04632 0.102431,0.04266 0.142695,-0.0041 0.0014,-0.0018 0.0025,-0.0032 0.0041,-0.0049 0.04698,-0.055 0.965394,-1.130412 0.997531,-1.181192 0.0293,-0.04631 0.05821,-0.171871 -0.04328,-0.246635 -0.02735,-0.02012 -0.06072,-0.02693 -0.09453,-0.03008 -0.340598,-0.03192 -2.306649,-0.216713 -2.374778,-0.232737 -0.0047,-0.0011 -0.0092,-0.0018 -0.01371,-0.0018 z"
       style="fill:#000000;fill-opacity:1;stroke:#000000;stroke-width:0.15;stroke-dasharray:none;stroke-opacity:1"
       sodipodi:nodetypes="cccscccccccsccccsccscc" />
    <path
       id="path25"
       d="m 46.251095,-16.823008 c -0.02475,7.3e-4 -0.03473,0.04296 -0.03092,0.05922 l 0.472862,1.589785 c 0.0142,0.05749 0.04161,0.0738 0.07787,0.04686 0.0046,-0.0034 0.0085,-0.0074 0.01231,-0.01172 0.05907,-0.06669 0.569729,-0.64312 0.588388,-0.663478 0.01801,-0.02161 0.01801,-0.06303 -0.0054,-0.08284 l -1.095626,-0.930848 c -0.0073,-0.0052 -0.01379,-0.0072 -0.0195,-0.007 z"
       style="color:#000000;font-style:normal;font-variant:normal;font-weight:normal;font-stretch:normal;font-size:medium;line-height:normal;font-family:sans-serif;font-variant-ligatures:normal;font-variant-position:normal;font-variant-caps:normal;font-variant-numeric:normal;font-variant-alternates:normal;font-variant-east-asian:normal;font-feature-settings:normal;font-variation-settings:normal;text-indent:0;text-align:start;text-decoration-line:none;text-decoration-style:solid;text-decoration-color:#000000;letter-spacing:normal;word-spacing:normal;text-transform:none;writing-mode:lr-tb;direction:ltr;text-orientation:mixed;dominant-baseline:auto;baseline-shift:baseline;text-anchor:start;white-space:normal;shape-padding:0;shape-margin:0;inline-size:0;clip-rule:nonzero;display:inline;overflow:visible;visibility:visible;isolation:auto;mix-blend-mode:normal;color-interpolation:sRGB;color-interpolation-filters:linearRGB;solid-color:#000000;solid-opacity:1;vector-effect:none;fill:#ffffff;fill-opacity:1;fill-rule:nonzero;stroke:none;stroke-linecap:butt;stroke-linejoin:miter;stroke-miterlimit:4;stroke-dasharray:none;stroke-dashoffset:0;stroke-opacity:1;-inkscape-stroke:none;color-rendering:auto;image-rendering:auto;shape-rendering:auto;text-rendering:auto;enable-background:accumulate;stop-color:#000000;stop-opacity:1"
       sodipodi:nodetypes="cccscccccc" />
    <path
       id="path26"
       d="m 44.658095,-13.933295 c -0.02751,-0.0013 -0.04514,0.03659 -0.02318,0.06023 0.02324,0.02503 0.581694,0.628745 0.589873,0.637591 2.91e-4,2.9e-4 1.45e-4,2.9e-4 4.51e-4,5.74e-4 0.01765,0.01901 0.04203,0.0175 0.05857,-0.0016 5.75e-4,-7.31e-4 0.001,-0.0013 0.0016,-0.0021 0.01928,-0.02257 0.396199,-0.463925 0.409389,-0.484765 0.01202,-0.01901 0.02389,-0.07053 -0.01776,-0.101219 -0.01123,-0.0082 -0.02492,-0.01106 -0.03879,-0.01235 -0.139782,-0.0131 -0.946655,-0.08894 -0.974615,-0.09552 -0.002,-4.51e-4 -0.0038,-7.3e-4 -0.0056,-7.3e-4 z"
       style="fill:#ffffff;fill-opacity:1;stroke:none;stroke-width:0.08208;stroke-dasharray:none;stroke-opacity:1"
       sodipodi:nodetypes="sccccsccsccs" />
    <path
       d="m 49.826946,-13.453227 c -0.06145,0.131779 -0.218101,0.188798 -0.349881,0.127347 -0.13178,-0.06145 -0.188798,-0.218101 -0.127348,-0.349881 0.06145,-0.131786 0.218101,-0.188798 0.349881,-0.127347 0.13178,0.06145 0.188798,0.218101 0.127348,0.349881 z"
       fill="#151515"
       id="path27"
       style="fill:#000000;fill-opacity:1;stroke:#000000;stroke-width:0.15;stroke-dasharray:none;stroke-opacity:1"
       sodipodi:nodetypes="sssss" />
  </g>
</svg>
